<?xml version="1.0" encoding="UTF-8"?>
<svg width="548px" height="92px" viewBox="0 0 548 92" version="1.1" xmlns="http://www.w3.org/2000/svg" xmlns:xlink="http://www.w3.org/1999/xlink">
    <title>Group 5</title>
    <g id="Page-1" stroke="none" stroke-width="1" fill="none" fill-rule="evenodd">
        <g id="typeofweb_youtube" transform="translate(-148.000000, -56.000000)" fill-rule="nonzero">
            <g id="Group-5" transform="translate(148.000000, 56.000000)">
                <path d="M0,11.2999029 L14.2645407,9 L14.2645407,23.8492226 L31.3985442,23.8492226 L31.3985442,35.7355073 L14.2645407,35.7355073 L14.2645407,53.4716951 C14.2645407,56.469166 14.7956672,58.8657615 15.8510225,60.6545748 C16.8994801,62.4502948 19.0239861,63.3412481 22.2107452,63.3412481 C25.3423224,63.3343415 28.4532062,62.7818123 31.3985442,61.711287 L33.4126863,72.8309374 C31.5452126,73.5787087 29.6246035,74.1858751 27.6668631,74.6473772 C25.1211458,75.2043873 22.5191505,75.4616763 19.9137955,75.4140115 C16.0234662,75.4140115 12.7953206,74.8891087 10.2431542,73.8323966 C7.8630333,72.9041859 5.75598581,71.3883924 4.11795494,69.4259761 C2.53147314,67.4230577 1.42783362,65.0748085 0.9105026,62.5746139 C0.280001854,59.6475514 -0.0230666409,56.6592995 0.00689774697,53.6650803 L0.00689774697,11.2999029 L0,11.2999029 Z M88.732617,23.8492226 C86.0253819,33.0503162 83.0186597,42.1603962 79.7172617,51.1648856 C76.6301948,59.5439148 73.2014362,67.7927318 69.4396187,75.8905679 C68.2848519,78.4330741 66.9405924,80.884942 65.4182322,83.2253932 C64.2004908,85.0965718 62.7128515,86.7769726 61.0036742,88.2119694 C59.4060874,89.5185077 57.5657186,90.4950398 55.5889428,91.0851213 C53.3000867,91.7281229 50.9301675,92.0352126 48.5532409,91.9967945 C44.8456593,92.0307332 41.1663397,91.3483281 37.7168804,89.9869695 L40.2000693,78.5772412 C41.4789813,79.0384428 42.7941224,79.3919082 44.1317851,79.6339533 C45.2768111,79.8273385 46.4908146,79.9240312 47.7668977,79.9240312 C50.3190641,79.9240312 52.284922,79.2333696 53.6575737,77.8589532 C55.0371231,76.4845368 56.1959445,74.5852176 57.1547314,72.1540891 C53.6039686,65.1207097 50.3454437,57.9431991 47.3875217,50.6399828 C43.8529139,41.8783371 40.7837257,32.9355858 38.192825,23.8492226 L53.3195841,23.8492226 C53.9610745,26.3425107 54.7129289,29.0429972 55.5751473,31.9506822 C57.3202773,37.8213051 59.2171577,43.6573949 61.2450953,49.4451384 C62.2383709,52.2561308 63.19026,54.8115784 64.0869671,57.1114813 C65.0001716,54.572807 65.864847,52.0168929 66.6805199,49.4451384 C67.577227,46.6341461 68.4601386,43.7402743 69.322357,40.7704298 C70.9502253,35.148445 72.5091161,29.512647 73.985234,23.8492226 L88.732617,23.8492226 L88.732617,23.8492226 Z M128.55331,49.4451384 C128.55331,45.0318113 127.560035,41.502531 125.587279,38.8503908 C123.607626,36.2051571 120.669185,34.8721804 116.778856,34.8721804 C114.695737,34.8721804 112.612617,35.0310326 110.557088,35.3556435 L110.557088,61.1380379 C111.64012,61.7931378 112.817286,62.277654 114.047348,62.5746139 C115.48208,62.9544777 116.937504,63.1478629 118.406724,63.1478629 C125.166516,63.1478629 128.546412,58.5825903 128.546412,49.4451384 L128.55331,49.4451384 L128.55331,49.4451384 Z M143.100659,49.058368 C143.100659,52.9606055 142.617816,56.5036991 141.665927,59.6945553 C140.812486,62.6912751 139.383237,65.4924507 137.458302,67.9410538 C135.605527,70.240994 133.244124,72.0781632 130.560555,73.3074938 C127.815251,74.5852176 124.656083,75.2275328 121.08305,75.2275328 C117.457399,75.2482461 113.868995,74.4947955 110.557088,73.017416 L110.557088,91.9967945 L96.2925477,91.9967945 L96.2925477,25.5758764 C97.7410745,25.1476663 99.2171924,24.7816157 100.700208,24.470818 C102.355667,24.1254872 104.093899,23.8215962 105.914905,23.5660514 C107.729012,23.3105066 109.584506,23.1033082 111.467591,22.944456 C113.350676,22.7856039 115.150988,22.7027245 116.875425,22.7027245 C121.020971,22.7027245 124.725061,23.3243199 127.980797,24.5675106 C131.071977,25.7111436 133.879269,27.5112519 136.209809,29.8441646 C138.496609,32.2019488 140.243125,35.030134 141.327938,38.1321028 C142.507452,41.3920251 143.100659,45.0387179 143.100659,49.058368 Z M185.218302,43.9750992 C185.149324,42.7664416 184.942392,41.5854104 184.597504,40.4320056 C184.260354,39.3130821 183.707292,38.271237 182.969636,37.3654685 C182.204065,36.4476257 181.257783,35.6976209 180.189844,35.1622583 C178.889263,34.5473214 177.461114,34.2513807 176.023605,34.2989314 C174.437123,34.2989314 173.057574,34.575196 171.912548,35.113912 C170.808908,35.6180949 169.829428,36.3571027 169.036187,37.2687759 C168.277435,38.1666359 167.684229,39.2026281 167.270364,40.3836593 C166.858292,41.5505526 166.553526,42.7526928 166.359861,43.9750992 L185.218302,43.9750992 L185.218302,43.9750992 Z M151.715945,49.4451384 C151.715945,44.9696518 152.398821,41.053601 153.771473,37.7038926 C155.151023,34.3472777 156.944437,31.5570051 159.179307,29.3123552 C161.37279,27.1022384 163.993934,25.3755846 166.88409,24.2359931 C169.731464,23.0947832 172.770355,22.508728 175.837366,22.5093388 C182.983432,22.5093388 188.632686,24.6987363 192.778232,29.0706237 C196.923778,33.4563243 199,39.8932896 199,48.3884263 C199,49.2172201 198.965511,50.1288933 198.903432,51.1234459 C198.834454,52.1110919 198.779272,52.988232 198.717192,53.7548663 L166.366759,53.7548663 C166.621976,56.5865785 168.132582,59.1558393 170.477816,60.7512675 C172.898925,62.4779212 176.154662,63.3412481 180.238128,63.3412481 C182.859272,63.3412481 185.425234,63.0995166 187.942912,62.6229602 C190.059958,62.2616825 192.130447,61.6663754 194.116395,60.8479601 L196.033969,72.4510735 C195.04479,72.9132573 194.020748,73.2966117 192.971369,73.5975717 C191.571127,74.0119686 190.143293,74.3434861 188.708562,74.5990309 C187.142773,74.8891087 185.46662,75.1308402 183.687002,75.3173188 C181.893588,75.5107041 180.113969,75.6073967 178.327452,75.6073967 C173.795633,75.6073967 169.857019,74.937455 166.504714,73.5975717 C163.360343,72.3922189 160.518347,70.510837 158.179133,68.0860928 C155.956445,65.7211076 154.288132,62.8898226 153.295529,59.7981546 C152.216102,56.4521815 151.680452,52.9543199 151.709047,49.4382318 L151.715945,49.4451384 L151.715945,49.4451384 Z" id="Shape" fill="#FFFFFF"></path>
                <path d="M233.522117,72.9170986 L209,53.5512057 L209,48.7409677 L233.522117,29.4791925 L235.723793,35.2542545 L216.191682,51.1495573 L235.723793,67.0448601 L233.515215,72.9170986 L233.522117,72.9170986 Z M282.939049,49.7057918 C282.939049,44.0556711 281.68292,39.5716686 279.156859,36.2676668 C276.630798,32.963665 273.200601,31.3047229 268.859364,31.3047229 C264.518128,31.3047229 261.087931,32.963665 258.568772,36.2676668 C256.042711,39.5786098 254.77968,44.0556711 254.77968,49.7057918 C254.77968,55.3559125 256.042711,59.839915 258.568772,63.1439168 C261.087931,66.4479186 264.518128,68.0999195 268.859364,68.0999195 C273.207502,68.0999195 276.630798,66.4479186 279.156859,63.1439168 C281.68292,59.8329738 282.939049,55.3559125 282.939049,49.7057918 Z M292.22888,49.7057918 C292.279759,53.3747266 291.695913,57.0246185 290.503428,60.4923859 C289.448456,63.5445419 287.806879,66.3582176 285.672164,68.773214 C283.610057,71.0738123 281.076381,72.8972885 278.245821,74.1179228 C275.279309,75.3887191 272.083639,76.0291362 268.859364,75.9989826 C265.477479,75.9989826 262.350961,75.3742764 259.472908,74.1248639 C256.644394,72.9041341 254.112991,71.0805993 252.053467,68.7801551 C249.982925,66.4618009 248.367902,63.7061524 247.222202,60.4923859 C246.03108,57.0242744 245.447272,53.3746237 245.496751,49.7057918 C245.496751,45.7909661 246.069601,42.2093171 247.222202,38.9677859 C248.367902,35.7193136 249.982925,32.9428415 252.053467,30.6383696 C254.124008,28.3200154 256.608659,26.5430733 259.472908,25.2867197 C262.350961,24.0373072 265.477479,23.412601 268.859364,23.412601 C272.241249,23.412601 275.374669,24.0373072 278.245821,25.2867197 C281.076922,26.506387 283.610792,28.3300026 285.672164,30.6314285 C287.742706,32.9428415 289.357729,35.7193136 290.503428,38.9608448 C291.688752,42.4160395 292.272463,46.0509981 292.22888,49.7057918 L292.22888,49.7057918 Z M319.228746,0 C321.851432,0 324.094519,0.194353047 325.985614,0.583059141 C327.862905,0.964824055 329.188052,1.31882425 329.954152,1.63811854 L328.325326,9.34282862 C327.282678,8.86099461 326.193308,8.48882129 325.074575,8.23223978 C323.666607,7.88518077 321.941155,7.70471008 319.898221,7.70471008 C315.750235,7.70471008 312.844575,8.85000482 311.18124,11.1267119 C309.524806,13.4103603 308.696589,16.4714207 308.696589,20.3237758 L308.696589,24.6620134 L327.849101,24.6620134 L327.849101,32.1723705 L308.696589,32.1723705 L308.696589,74.7495702 L299.786358,74.7495702 L299.786358,20.1363639 C299.786358,13.7157722 301.353068,8.7528283 304.479586,5.25447345 C307.606104,1.74917742 312.527092,0 319.228746,0 L319.228746,0 Z M363,53.6553234 L338.484785,72.9170986 L336.276207,67.1350954 L355.81522,51.1495573 C352.52853,48.5559664 349.272943,45.9227553 346.049164,43.2504942 C342.805315,40.5711986 339.554565,37.9057854 336.283109,35.2542545 L338.484785,29.4791925 L363,48.7409677 L363,53.6553234 L363,53.6553234 Z" id="Shape" fill="#5AB783"></path>
                <path d="M403.612738,45.6013865 C402.329905,50.4679376 400.970796,55.3067591 399.521542,60.1247834 C398.065354,64.9913345 396.539823,69.830156 394.951884,74.6551127 L383.787773,74.6551127 C382.442532,71.4870017 381.187436,68.2772964 380.029419,65.0329289 C378.567093,60.9990011 377.166216,56.9430729 375.827276,52.8665511 C374.384956,48.4714038 372.90103,43.8197574 371.389368,38.9185442 C369.868421,33.979115 368.405199,29.0221048 367,24.0485269 L382.109689,24.0485269 C383.288508,29.3795494 384.508933,34.7036395 385.743226,40.0207972 C386.415846,42.9046794 387.130072,45.8093588 387.8651,48.7279029 C388.607063,51.6464471 389.369828,54.4471404 390.146462,57.1438475 C390.97857,54.322357 391.796809,51.4384749 392.594246,48.4852686 C393.398616,45.5389948 394.168316,42.6343154 394.910279,39.7781629 L397.025219,31.507799 C397.65346,29.030156 398.245644,26.5435009 398.800382,24.0485269 L409.201728,24.0485269 C409.707927,26.3639515 410.283468,28.8457539 410.935286,31.507799 C411.566301,34.169844 412.245855,36.9289428 412.946213,39.7781629 C413.667373,42.6897747 414.402401,45.5875217 415.165166,48.4852686 C415.919909,51.3860384 416.719754,54.2748918 417.56441,57.1507799 C419.992614,48.7087416 422.141086,40.1887824 424.006311,31.6048527 L425.698263,24.0485269 L440.613793,24.0485269 C437.860904,33.712305 434.913855,43.3206239 431.786517,52.8596187 C430.447008,56.9439835 429.029856,61.0024886 427.535834,65.0329289 C426.148988,68.7556326 424.880024,71.965338 423.722007,74.6551127 L412.557896,74.6551127 C410.972595,69.8168181 409.403139,64.973349 407.849553,60.1247834 C406.312759,55.3214757 404.902313,50.4786764 403.619672,45.6013865 L403.612738,45.6013865 L403.612738,45.6013865 Z M478.336008,44.2495667 C478.266666,43.0363951 478.058639,41.8509532 477.711927,40.6932409 C477.373328,39.5700009 476.817307,38.5242026 476.075449,37.6152513 C475.305829,36.6939807 474.354542,35.9411748 473.280954,35.4038128 C471.973494,34.7865794 470.537791,34.4895335 469.092679,34.5372617 C467.497806,34.5372617 466.110959,34.8145581 464.959877,35.355286 C463.8504,35.8613518 462.865739,36.6031196 462.068303,37.5181976 C461.285638,38.439812 460.683438,39.5004398 460.29314,40.644714 C459.878889,41.8159652 459.57251,43.022595 459.377821,44.2495667 L478.336008,44.2495667 L478.336008,44.2495667 Z M444.65645,49.7400347 C444.65645,45.2478336 445.342938,41.3171577 446.72285,37.9549393 C448.102762,34.5857886 449.912596,31.7850953 452.159287,29.5320624 C454.364373,27.3136915 456.99938,25.5805893 459.904823,24.4367418 C462.767257,23.2912699 465.822222,22.7030259 468.905454,22.703639 C476.089317,22.703639 481.768452,24.9012132 485.935925,29.2894281 C490.103398,33.6915078 492.190601,40.152513 492.190601,48.6793761 C492.190601,49.5112652 492.15593,50.4263432 492.093522,51.4246101 C492.02418,52.4159445 491.968706,53.2963605 491.899363,54.0658579 L459.377821,54.0658579 C459.634388,56.9081456 461.152984,59.4870017 463.517557,61.0883882 C465.951472,62.8214905 469.224429,63.6880416 473.329494,63.6880416 C475.964501,63.6880416 478.544035,63.4454073 481.075029,62.9670711 C483.203273,62.6044441 485.284714,62.0069138 487.281166,61.1854419 L489.208882,72.8318891 C488.214471,73.2957989 487.185013,73.680585 486.130083,73.982669 C484.722435,74.3986135 483.287049,74.7313692 481.844729,74.9878683 C480.270659,75.2790295 478.58564,75.5216638 476.796609,75.7088388 C475.004798,75.9018321 473.203957,75.9990242 471.401777,76 C466.845988,76 462.893476,75.3275563 459.52344,73.982669 C456.359955,72.7737096 453.500481,70.885249 451.14689,68.4506066 C448.914944,66.0761121 447.240206,63.2343047 446.244388,60.1317158 C445.159252,56.7732467 444.620769,53.2623217 444.649515,49.7331023 L444.65645,49.7400347 L444.65645,49.7400347 Z M533.372997,48.9636049 C533.372997,39.7365685 529.975224,35.1126516 523.172744,35.1126516 C521.695753,35.1126516 520.239564,35.3067591 518.797244,35.694974 C517.556017,35.9930676 516.370264,36.4783362 515.281589,37.1369151 L515.281589,63.202773 C515.981947,63.3414211 516.883397,63.4454073 517.979005,63.5493934 C519.060745,63.6395147 520.253433,63.6880416 521.536265,63.6880416 C525.447172,63.6880416 528.401154,62.3431542 530.391278,59.6464471 C532.374468,56.94974 533.372997,53.3934142 533.372997,48.9705373 L533.372997,48.9636049 L533.372997,48.9636049 Z M547.99729,49.3518198 C547.99729,53.3934142 547.400946,57.0467938 546.215192,60.3188908 C545.117818,63.4435124 543.363354,66.296723 541.069993,68.6863085 C538.73713,71.0502582 535.912964,72.8725853 532.797456,74.0242634 C529.524499,75.2720971 525.800817,75.9029463 521.633345,75.9029463 C519.899787,75.9029463 518.089953,75.8197574 516.196908,75.660312 C514.303863,75.5008666 512.438555,75.2928943 510.614852,75.0363951 C508.784215,74.779896 507.036789,74.4818024 505.372574,74.1213172 C503.879895,73.8173121 502.401449,73.4472194 500.9416,73.0121317 L500.9416,2.3084922 L515.281589,0 L515.281589,25.2062392 C518.61002,23.7227036 522.21582,22.9670711 525.863225,22.9878683 C529.455157,22.9878683 532.631035,23.6187175 535.390858,24.8665511 C538.150682,26.1143847 540.452847,27.9029463 542.325089,30.2045061 C544.265763,32.6741687 545.70287,35.5005215 546.55497,38.5233969 C547.555227,42.0445164 548.041025,45.691716 547.99729,49.3518198 L547.99729,49.3518198 Z" id="Shape" fill="#FFFFFF"></path>
            </g>
        </g>
    </g>
</svg>